<svg width="31" height="22" viewBox="0 0 31 22" fill="none" xmlns="http://www.w3.org/2000/svg">
<path fill-rule="evenodd" clip-rule="evenodd" d="M7.73898 3.23291L0 11C1.54794 12.5536 3.31622 13.8629 5.24415 14.8872C5.77704 16.3059 6.61232 17.6364 7.75 18.7782C12.0302 23.0739 18.9698 23.0739 23.25 18.7782C24.3877 17.6364 25.223 16.3059 25.7559 14.8872C27.6838 13.8629 29.4521 12.5536 31 11L23.2673 3.23923C23.2615 3.23342 23.2558 3.22762 23.25 3.22182C18.9698 -1.07394 12.0302 -1.07394 7.75 3.22182C7.74633 3.22552 7.74265 3.22921 7.73898 3.23291ZM22.5095 16.2886C20.2542 17.0524 17.8868 17.4436 15.5 17.4436C13.1132 17.4436 10.7458 17.0524 8.49059 16.2886C8.73495 16.6139 9.00472 16.9262 9.3 17.2225C12.7242 20.6592 18.2758 20.6592 21.7 17.2225C21.9953 16.9262 22.2651 16.6139 22.5095 16.2886ZM9.45895 4.62188C10.0404 5.00744 10.6587 5.33737 11.3057 5.60635C12.6354 6.15915 14.0607 6.44367 15.5 6.44367C16.9393 6.44367 18.3646 6.15915 19.6943 5.60635C20.3413 5.33737 20.9596 5.00743 21.5411 4.62187C18.1596 1.3927 12.8404 1.39271 9.45895 4.62188Z" fill="#F8F8F8"/>
</svg>
